HIERARCHY
ROOT Hips
{
	OFFSET 0.00000 0.00000 0.00000
	CHANNELS 6 Xposition Yposition Zposition Zrotation Yrotation Xrotation 
	JOINT LHipJoint
	{
		OFFSET 0 0 0
		CHANNELS 3 Zrotation Yrotation Xrotation
		JOINT LeftHip
		{
			OFFSET 1.60223 -1.58443 0.78595
			CHANNELS 3 Zrotation Yrotation Xrotation
			JOINT LeftKnee
			{
				OFFSET 2.21690 -6.09089 0.00000
				CHANNELS 3 Zrotation Yrotation Xrotation
				JOINT LeftAnkle
				{
					OFFSET 2.34805 -6.45122 0.00000
					CHANNELS 3 Zrotation Yrotation Xrotation
					JOINT LeftToe
					{
						OFFSET 0.35452 -0.97402 1.38549
						CHANNELS 3 Zrotation Yrotation Xrotation
						End Site
						{
							OFFSET 0.00000 -0.00000 0.82816
						}
					}
				}
			}
		}
	}
	JOINT RHipJoint
	{
		OFFSET 0 0 0
		CHANNELS 3 Zrotation Yrotation Xrotation
		JOINT RightHip
		{
			OFFSET -1.56524 -1.58443 0.78595
			CHANNELS 3 Zrotation Yrotation Xrotation
			JOINT RightKnee
			{
				OFFSET -2.15558 -5.92241 0.00000
				CHANNELS 3 Zrotation Yrotation Xrotation
				JOINT RightAnkle
				{
					OFFSET -2.35077 -6.45870 0.00000
					CHANNELS 3 Zrotation Yrotation Xrotation
					JOINT RightToe
					{
						OFFSET -0.26910 -0.73935 1.33295
						CHANNELS 3 Zrotation Yrotation Xrotation
						End Site
						{
							OFFSET -0.00000 -0.00000 0.75962
						}
					}
				}
			}
		}
	}
	JOINT lowerback
	{
		OFFSET 0 0 0
		CHANNELS 3 Zrotation Yrotation Xrotation
		JOINT Chest
		{
			OFFSET -0.05489 1.97104 -0.02993
			CHANNELS 3 Zrotation Yrotation Xrotation
			JOINT Chest2
			{
				OFFSET -0.00702 1.94230 0.13626
				CHANNELS 3 Zrotation Yrotation Xrotation
				JOINT lowerneck
				{
					OFFSET 0 0 0
					CHANNELS 3 Zrotation Yrotation Xrotation
					JOINT Neck
					{
						OFFSET -0.07858 1.62869 -0.02510
						CHANNELS 3 Zrotation Yrotation Xrotation
						JOINT Head
						{
							OFFSET 0.13978 1.59213 -0.29859
							CHANNELS 3 Zrotation Yrotation Xrotation
							End Site
							{
								OFFSET 0.05353 1.64420 -0.10000
							}
						}
					}
				}
				JOINT LeftCollar
				{
					OFFSET 0 0 0
					CHANNELS 3 Zrotation Yrotation Xrotation
					JOINT LeftShoulder
					{
						OFFSET 3.48263 1.15278 0.52941
CHANNELS 3 Zrotation Xrotation Yrotation
						JOINT LeftElbow
						{
OFFSET 0 -4.592070 -0.000000
CHANNELS 3 Zrotation Xrotation Yrotation
							JOINT LeftWrist
							{
OFFSET 0 -2.981090 -0.000000
CHANNELS 3 Zrotation Xrotation Yrotation
								JOINT lhand
								{
									OFFSET 0 0 0
CHANNELS 3 Zrotation Xrotation Yrotation
									JOINT LFingers
									{
OFFSET 0 -0.480200 -0.000000
CHANNELS 3 Zrotation Xrotation Yrotation
										End Site
										{
OFFSET 0 -0.387150 -0.000000
										}
									}
								}
								JOINT LThumb
								{
OFFSET 0 0.000000 0.000000
CHANNELS 3 Zrotation Xrotation Yrotation
									End Site
									{
OFFSET 0 -0.393060 0.393060
									}
								}
							}
						}
					}
				}
				JOINT RightCollar
				{
					OFFSET 0 0 0
					CHANNELS 3 Zrotation Yrotation Xrotation
					JOINT RightShoulder
					{
						OFFSET -3.52496 1.12722 0.24548
CHANNELS 3 Zrotation Xrotation Yrotation
						JOINT RightElbow
						{
OFFSET 0 -4.765080 -0.000000
CHANNELS 3 Zrotation Xrotation Yrotation
							JOINT RightWrist
							{
OFFSET 0 -2.789020 -0.000000
CHANNELS 3 Zrotation Xrotation Yrotation
								JOINT rhand
								{
									OFFSET 0 0 0
CHANNELS 3 Zrotation Xrotation Yrotation
									JOINT RFingers
									{
OFFSET 0 -0.721300 -0.000000
CHANNELS 3 Zrotation Xrotation Yrotation
										End Site
										{
OFFSET 0 -0.581530 -0.000000
										}
									}
								}
								JOINT RThumb
								{
OFFSET 0 0.000000 0.000000
CHANNELS 3 Zrotation Xrotation Yrotation
									End Site
									{
OFFSET 0 -0.590410 0.590410
									}
								}
							}
						}
					}
				}
			}
		}
	}
}
MOTION
Frames: 5
Frame Time: 0.008333333333333333
2.455650 15.156735 -0.244904 546.947452 -160.466244 -536.291783 0.000000 0.000000 0.000000 -29.636285 -16.823225 -20.202108 7.640218 15.848117 51.256320 2.198770 -15.947967 -27.292252 1.617789 -8.019973 -22.774819 0.000000 0.000000 0.000000 -5.230061 11.079971 -37.039484 -12.147591 -18.452181 66.455668 -0.493277 -9.997028 -20.439282 -0.416051 4.140043 -11.471075 1.828358 9.201314 6.258965 -1.702063 12.428653 -5.150549 -4.346803 5.929169 -8.137147 -5.224365 2.551471 0.576594 3.109684 3.356033 1.839689 1.854766 1.660058 0.327297 0.000000 0.000000 0.000000 27.529889 8.424488 35.139843 136.623518 -49.947886 99.011510 -31.770807 -71.772865 -46.957313 0.000000 0.000000 0.000000 -7.125000 0.000000 0.000000 -81.227488 59.302000 44.066677 0.000000 0.000000 0.000000 -17.686601 -2.584889 51.197454 -46.869651 -51.652152 -23.696088 -0.400254 17.166749 -54.293962 0.000000 0.000000 0.000000 7.125000 0.000000 0.000000 19.058841 -21.920951 25.883086
1.728978 15.279856 -0.107758 547.474467 -169.240492 -535.109005 0.000000 0.000000 0.000000 -27.359310 -20.084697 -17.512939 6.930920 15.273391 48.612616 1.530116 -19.991933 -24.524320 1.610892 -8.003644 -22.725223 0.000000 0.000000 0.000000 -10.074647 15.338366 -31.231976 -8.484860 -16.463860 54.289801 -0.640482 -13.168684 -25.026602 -0.987601 6.321165 -17.720269 1.054510 9.155445 6.117215 -2.160113 12.261748 -5.220148 -4.387659 5.879050 -8.201687 -4.628119 4.212059 0.709131 1.920322 5.581693 1.001094 1.341329 2.779473 0.001391 0.000000 0.000000 0.000000 26.318337 6.995883 32.712887 135.716117 -50.412781 98.314544 -17.615530 -52.957713 -48.810452 0.000000 0.000000 0.000000 -7.125000 0.000000 0.000000 -74.436710 64.083733 45.137139 0.000000 0.000000 0.000000 -16.577376 -1.271063 53.819382 -51.253360 -53.488449 -27.178438 -1.227487 14.291626 -52.664515 0.000000 0.000000 0.000000 7.125000 0.000000 0.000000 18.512100 -20.467029 24.831303
0.936280 15.428351 0.076892 547.476870 -178.069356 -534.226114 0.000000 0.000000 0.000000 -23.950679 -23.017910 -14.789401 6.094557 14.519201 45.359804 0.717536 -24.042955 -21.542569 1.673845 -8.150748 -23.173054 0.000000 0.000000 0.000000 -12.235663 20.562880 -22.822157 -5.188293 -13.591352 41.627152 -0.404564 -16.743754 -27.150249 -1.590101 7.954092 -22.574832 0.396357 9.120226 5.957756 -2.177019 12.148544 -4.979184 -4.001521 5.872021 -7.988834 -5.382391 4.367696 0.360816 1.641978 5.806131 0.771827 1.385765 2.893421 -0.032409 0.000000 0.000000 0.000000 23.532010 5.926732 30.317848 136.036207 -50.250663 98.560935 -3.561395 -34.827535 -49.382615 0.000000 0.000000 0.000000 -7.125000 0.000000 0.000000 -65.664268 68.774429 43.664948 0.000000 0.000000 0.000000 -15.364118 -1.608926 57.171899 -52.466703 -53.943222 -28.156417 -2.042129 12.476945 -49.729868 0.000000 0.000000 0.000000 7.125000 0.000000 0.000000 17.810995 -17.777202 23.328809
0.096598 15.561471 0.290217 545.818114 -187.293379 -533.520265 0.000000 0.000000 0.000000 -18.215751 -26.187972 -13.320657 5.396889 13.817220 42.510380 -0.109575 -27.141591 -18.517615 2.364940 -9.587702 -27.651797 0.000000 0.000000 0.000000 -9.783496 23.385094 -15.817649 -3.134302 -10.908129 31.972034 -0.390368 -12.697340 -22.306838 -1.800192 8.436494 -24.048194 1.419695 9.107151 5.812535 -1.857513 12.251859 -4.886433 -4.163456 5.891480 -7.656394 -5.751323 3.567519 -0.024725 1.650024 4.763011 0.849393 1.470065 2.371052 0.084569 0.000000 0.000000 0.000000 20.007830 5.110194 27.736343 136.341323 -50.094165 98.795259 5.781402 -24.133626 -50.373688 0.000000 0.000000 0.000000 -7.125000 0.000000 0.000000 -61.654764 72.439091 44.509035 0.000000 0.000000 0.000000 -14.218811 -0.509145 60.094684 -57.148753 -55.500550 -31.979845 -1.424933 12.112203 -47.135178 0.000000 0.000000 0.000000 7.125000 0.000000 0.000000 17.807179 -15.248313 22.815249
-0.814161 15.653512 0.526973 543.653249 -196.458486 -533.114818 0.000000 0.000000 0.000000 -11.135716 -30.434092 -13.802751 5.026231 13.413263 40.935734 -0.721649 -29.050215 -16.254586 3.261641 -11.106370 -32.640180 0.000000 0.000000 0.000000 -3.656798 19.584808 -12.289164 -2.394247 -9.642813 27.827901 -0.313381 -8.820328 -17.229060 -2.831526 10.416821 -30.337601 2.561884 9.222460 5.526503 -1.808627 12.522243 -5.132600 -4.688189 5.973804 -7.510995 -6.204852 2.280173 0.252293 3.544323 3.020851 0.568460 2.168251 1.503340 -0.021702 0.000000 0.000000 0.000000 16.850976 5.295361 24.722083 136.932453 -49.785837 99.247648 15.248731 -17.636851 -51.521382 0.000000 0.000000 0.000000 -7.125000 0.000000 0.000000 -59.498022 76.485489 46.926676 0.000000 0.000000 0.000000 -12.196380 -0.454765 63.235408 -61.227768 -56.627940 -35.364646 -0.377466 10.646409 -43.781158 0.000000 0.000000 0.000000 7.125000 0.000000 0.000000 18.012650 -11.955926 22.358623
